<svg xmlns="http://www.w3.org/2000/svg">

  <symbol id="phone" viewBox="0 0 27 27" fill="none">
    <path
      d="M15.2692 0.0111882C15.1219 0.0225162 14.9769 0.0429073 14.8342 0.0836882L4.61171 2.98369C3.46303 3.30994 2.78108 4.51752 3.10733 5.66619L7.89233 22.4862C7.90139 22.5428 7.91952 22.5972 7.94671 22.6493L8.63546 25.0962C8.96171 26.2449 10.1693 26.9087 11.318 26.5824L21.5405 23.6824C22.6891 23.3562 23.3711 22.1486 23.0448 20.9999L22.3742 18.6437C22.3833 18.5078 22.3448 18.3741 22.2655 18.2631L17.5167 1.56994C17.272 0.709001 16.5448 0.117673 15.7042 0.0111882C15.5637 -0.00693678 15.4165 -0.000139756 15.2692 0.0111882ZM15.3598 1.15306C15.8333 1.11681 16.2751 1.42041 16.4111 1.89619L21.033 18.2087L8.85296 21.6524L4.23108 5.33994C4.07702 4.79392 4.39194 4.24338 4.93796 4.08931L15.1605 1.18931C15.2284 1.16892 15.2919 1.15759 15.3598 1.15306ZM20.7248 5.01369C20.5572 5.04088 20.4099 5.14283 20.3215 5.29009C20.2355 5.43509 20.2151 5.61408 20.2717 5.77494L23.1717 15.9974C23.2623 16.3078 23.5863 16.4868 23.8967 16.3962C24.2071 16.3056 24.3861 15.9816 24.2955 15.6712L21.3955 5.44869C21.3298 5.19267 21.0987 5.01369 20.8336 5.01369C20.8155 5.01369 20.7973 5.01369 20.7792 5.01369C20.7611 5.01369 20.743 5.01369 20.7248 5.01369ZM24.0055 6.84431C23.8378 6.8715 23.6905 6.97345 23.6022 7.12072C23.5161 7.26572 23.4957 7.4447 23.5523 7.60556L25.0023 12.7168C25.093 13.0272 25.4169 13.2062 25.7273 13.1156C26.0377 13.0249 26.2167 12.701 26.1261 12.3906L24.6761 7.27931C24.6104 7.0233 24.3793 6.84431 24.1142 6.84431C24.0961 6.84431 24.078 6.84431 24.0598 6.84431C24.0417 6.84431 24.0236 6.84431 24.0055 6.84431ZM2.36421 10.2337C2.34608 10.2382 2.32796 10.245 2.30983 10.2518C2.14671 10.2813 2.00171 10.3787 1.91561 10.5214C1.82952 10.6642 1.80686 10.8363 1.85671 10.9949L4.75671 21.2174C4.84733 21.5278 5.17132 21.7068 5.48171 21.6162C5.7921 21.5256 5.97108 21.2016 5.88046 20.8912L2.98046 10.6687C2.91475 10.4127 2.68366 10.2337 2.41858 10.2337C2.40046 10.2337 2.38233 10.2337 2.36421 10.2337ZM0.533581 13.5143C0.515456 13.5188 0.497331 13.5256 0.479206 13.5324C0.316081 13.5619 0.171081 13.6593 0.0849876 13.802C-0.00110646 13.9448 -0.0237624 14.117 0.0260811 14.2756L1.47608 19.3868C1.56671 19.6972 1.89069 19.8762 2.20108 19.7856C2.51147 19.6949 2.69046 19.371 2.59983 19.0606L1.14983 13.9493C1.08413 13.6933 0.853034 13.5143 0.587956 13.5143C0.569831 13.5143 0.551706 13.5143 0.533581 13.5143ZM21.3592 19.3324L21.9211 21.3262C22.0751 21.8722 21.7602 22.4228 21.2142 22.5768L10.9917 25.4768C10.4457 25.6309 9.89514 25.316 9.74108 24.7699L9.17921 22.7762L21.3592 19.3324ZM15.6317 21.7431C15.5796 21.7476 15.5207 21.7453 15.4686 21.7612C15.0449 21.8813 14.8048 22.3344 14.9248 22.7581C15.0449 23.1817 15.4799 23.4219 15.9036 23.3018C16.3273 23.1817 16.5674 22.7467 16.4473 22.3231C16.3431 21.9515 16.001 21.7159 15.6317 21.7431Z"
      fill="#606571" />
  </symbol>

  <symbol id="location" viewBox="0 0 34 34" fill="none">
    <path
      d="M17 2.71997C11.7388 2.71997 7.47998 6.97879 7.47998 12.24C7.47998 16.5975 9.76132 21.2525 12.0022 24.8638C14.2432 28.4751 16.4873 31.0475 16.4873 31.0475C16.5515 31.1211 16.6309 31.18 16.7199 31.2202C16.8089 31.2604 16.9055 31.2809 17.0032 31.2804C17.1009 31.2799 17.1973 31.2584 17.2859 31.2173C17.3745 31.1762 17.4532 31.1165 17.5166 31.0422C17.5166 31.0422 19.7593 28.4206 21.999 24.7854C24.2387 21.1502 26.52 16.5017 26.52 12.24C26.52 6.97879 22.2612 2.71997 17 2.71997ZM17 4.07997C21.5308 4.07997 25.16 7.70916 25.16 12.24C25.16 16.0023 23.0212 20.5334 20.8409 24.0722C19.0709 26.9452 17.5988 28.7788 16.996 29.5122C16.39 28.7879 14.9229 26.9913 13.1577 24.1466C10.9786 20.6349 8.83998 16.1104 8.83998 12.24C8.83998 7.70916 12.4692 4.07997 17 4.07997ZM17 7.47997C14.3851 7.47997 12.24 9.62506 12.24 12.24C12.24 14.8549 14.3851 17 17 17C19.6149 17 21.76 14.8549 21.76 12.24C21.76 9.62506 19.6149 7.47997 17 7.47997ZM17 8.83997C18.8731 8.83997 20.4 10.3669 20.4 12.24C20.4 14.1131 18.8731 15.64 17 15.64C15.1269 15.64 13.6 14.1131 13.6 12.24C13.6 10.3669 15.1269 8.83997 17 8.83997Z"
      fill="#606571" />
  </symbol>

  <symbol id="cross" width="24" height="24" viewBox="0 0 24 24" fill="none">
    <path d="M18 6L6 18M6 6L18 18" stroke="#fff235" stroke-width="2" stroke-linecap="round" stroke-linejoin="round" />
  </symbol>

  <symbol id="telegram-ico" width="35" height="35" viewBox="0 0 35 35" fill="none">
    <path
      d="M29.3467 4.64845C28.9674 4.66518 28.6141 4.77564 28.3031 4.90138C28.0117 5.01858 26.8984 5.49607 25.1449 6.24806C23.3898 7.0007 21.0659 7.99842 18.5869 9.06446C13.629 11.1966 8.05491 13.5965 5.19987 14.8249C5.09251 14.8711 4.71791 14.9907 4.32031 15.3011C3.92272 15.6115 3.5 16.2547 3.5 16.9714C3.5 17.5493 3.77541 18.1234 4.12207 18.4662C4.46873 18.8089 4.83554 18.9783 5.14974 19.1065C6.28977 19.5716 9.82549 21.0185 10.4932 21.2917C10.7281 22.0115 12.0079 25.9263 12.3047 26.8858C12.5003 27.5189 12.6866 27.9154 12.929 28.2302C13.0503 28.3875 13.1912 28.5254 13.362 28.6335C13.4302 28.6767 13.5051 28.7099 13.5807 28.7406L13.5853 28.7428C13.6027 28.7498 13.6177 28.7617 13.6354 28.7679C13.6688 28.7796 13.6911 28.781 13.7357 28.7907C13.9134 28.8481 14.0928 28.8841 14.2529 28.8841C14.9356 28.8841 15.3535 28.5081 15.3535 28.5081L15.3786 28.4899L18.89 25.4525L23.1488 29.4811C23.2087 29.5659 23.768 30.3333 25.0013 30.3333C25.7336 30.3333 26.3145 29.9659 26.6875 29.5746C27.0605 29.1832 27.2928 28.7721 27.3916 28.2552V28.2529C27.484 27.7645 31.4089 7.61524 31.4089 7.61524L31.402 7.64259C31.5169 7.11816 31.547 6.62976 31.4202 6.1478C31.2935 5.66584 30.9594 5.20438 30.5452 4.95606C30.1311 4.7078 29.7259 4.63172 29.3467 4.64845ZM29.1279 7.0866C29.1223 7.12065 29.1321 7.10353 29.1234 7.14356L29.1211 7.15724L29.1188 7.17091C29.1188 7.17091 25.2426 27.0624 25.0993 27.82C25.1098 27.7628 25.0618 27.8765 25.0127 27.9453C24.9432 27.8974 24.8008 27.8359 24.8008 27.8359L24.778 27.8109L18.9606 22.308L14.8477 25.8626L16.0713 20.9636C16.0713 20.9636 23.7202 13.0458 24.181 12.585C24.552 12.2163 24.6299 12.0878 24.6299 11.9606C24.6299 11.7903 24.5411 11.6667 24.3428 11.6667C24.1643 11.6667 23.9242 11.8402 23.7959 11.9219C22.1239 12.9877 14.7838 17.2657 11.4935 19.1794C10.9706 18.9654 7.33794 17.4784 6.10677 16.9759C6.11609 16.9718 6.11302 16.9733 6.12272 16.9691C8.97851 15.7404 14.5502 13.3405 19.5075 11.2087C21.9861 10.1428 24.3118 9.14429 26.0654 8.39226C27.7921 7.65181 28.9918 7.14221 29.1279 7.0866Z"
      fill="#2C383F" />
  </symbol>

  <symbol id="arrow" viewBox="0 0 12 19" fill="none">
    <path d="M1.4314 1.39685L10.4314 10.6196M1.4314 17.3969L10.4314 8.17407" stroke="#606571" stroke-width="4" />
  </symbol>

  <symbol id="eye-icon" viewBox="0 0 50 50" fill="none">
    <path
      d="M24.9999 12C11.67 12 1.24012 24.3496 1.24012 24.3496C1.08501 24.5308 0.999756 24.7615 0.999756 25C0.999756 25.2385 1.08501 25.4692 1.24012 25.6504C1.24012 25.6504 11.67 38 24.9999 38C38.3298 38 48.7597 25.6504 48.7597 25.6504C48.9148 25.4692 49 25.2385 49 25C49 24.7615 48.9148 24.5308 48.7597 24.3496C48.7597 24.3496 38.3298 12 24.9999 12ZM24.9999 14C27.666 14 30.2121 14.5532 32.5682 15.4043C34.1399 17.2083 34.9999 19.3937 34.9999 22C34.9999 27.5645 30.5644 32 24.9999 32C19.4354 32 14.9999 27.5645 14.9999 22C14.9999 19.5297 15.9534 17.2156 17.4432 15.4004C19.7962 14.5516 22.3381 14 24.9999 14ZM14.1932 16.8105C13.442 18.3924 12.9999 20.1508 12.9999 22C12.9999 28.6355 18.3644 34 24.9999 34C31.6354 34 36.9999 28.6355 36.9999 22C36.9999 20.1338 36.5998 18.4007 35.869 16.8418C41.5283 19.7196 45.5866 23.8972 46.6054 25C45.011 26.7259 35.992 36 24.9999 36C14.0077 36 4.98877 26.7259 3.39442 25C4.41688 23.8931 8.50158 19.6892 14.1932 16.8105ZM24.9999 17C23.6738 17 22.402 17.5268 21.4644 18.4645C20.5267 19.4021 19.9999 20.6739 19.9999 22C19.9999 23.3261 20.5267 24.5979 21.4644 25.5355C22.402 26.4732 23.6738 27 24.9999 27C26.326 27 27.5977 26.4732 28.5354 25.5355C29.4731 24.5979 29.9999 23.3261 29.9999 22C29.9999 20.6739 29.4731 19.4021 28.5354 18.4645C27.5977 17.5268 26.326 17 24.9999 17Z"
      fill="white" />
  </symbol>

  <symbol id="t-shirt" viewBox="0 0 80 80" fill="none">
    <path
      d="M40 1.59998C34.45 1.59998 31.0188 2.83123 30.1 3.19998C29.9375 3.24373 29.7875 3.31248 29.65 3.39998C29.6313 3.39998 29.6188 3.39998 29.6 3.39998C29.5688 3.41248 29.5312 3.43123 29.5 3.44998C29.4813 3.46873 29.4688 3.48123 29.45 3.49998C29.4188 3.51248 29.3813 3.53123 29.35 3.54998C29.3312 3.56873 29.3188 3.58123 29.3 3.59998C29.2438 3.64373 29.1938 3.69373 29.15 3.74998C29.1313 3.78123 29.1125 3.81873 29.1 3.84998C29.0812 3.86873 29.0688 3.88123 29.05 3.89998C29.0312 3.93123 29.0125 3.96873 29 3.99998L26.15 8.19998L18.85 10.55C18.75 10.575 18.6438 10.6062 18.55 10.65C17.1313 11.1125 15.4563 12.1625 13.6 14.05C11.575 16.1125 9.45 19.1125 7.9 23.3C6.7 26.5375 4.7625 31.6187 3.1 36.25C2.26875 38.5687 1.50625 40.7375 0.95 42.6C0.39375 44.4625 0 45.8625 0 47.1V70.4C0 71.2812 0.71875 72 1.6 72H12.8C13.6812 72 14.4 71.2812 14.4 70.4V48.05C14.4 48.0562 14.4 48.05 14.4 48C14.4125 47.925 14.4563 47.7375 14.55 47.5C14.7 47.1187 14.9563 46.625 15.25 46.05C15.8313 44.8937 16.6438 43.4562 17.45 42.1C17.525 41.9687 17.525 41.9812 17.6 41.85V76.8C17.6 77.6812 18.3188 78.4 19.2 78.4H60.8C61.6813 78.4 62.4 77.6812 62.4 76.8L62.3 44.95V44.9L62.35 41.75C62.4562 41.925 62.4438 41.9187 62.55 42.1C63.3563 43.4562 64.1688 44.8937 64.75 46.05C65.0438 46.625 65.3 47.1187 65.45 47.5C65.5625 47.7875 65.5938 48.025 65.6 48.05V70.4C65.6 71.2812 66.3187 72 67.2 72H78.4C79.2812 72 80 71.2812 80 70.4V47.1C80 45.8625 79.6063 44.4625 79.05 42.6C78.4938 40.7375 77.7313 38.5687 76.9 36.25C75.2375 31.6187 73.3 26.5375 72.1 23.3C70.55 19.1125 68.425 16.1125 66.4 14.05C64.525 12.1437 62.8312 11.1 61.4 10.65C61.3188 10.6125 61.2375 10.575 61.15 10.55L53.85 8.19998L51.05 4.04998C51.0188 3.99998 50.9875 3.94998 50.95 3.89998C50.9188 3.86248 50.8875 3.83123 50.85 3.79998C50.85 3.78123 50.85 3.76873 50.85 3.74998C50.7 3.58123 50.5125 3.44373 50.3 3.34998C50.3 3.34998 50.2562 3.29998 50.25 3.29998C50.1562 3.25623 50.05 3.22498 49.95 3.19998C49.1125 2.86248 45.6562 1.59998 40 1.59998ZM40 4.79998C43.8812 4.79998 46.3563 5.36873 47.7 5.79998C47.4688 6.61248 47.1063 7.66873 46.45 8.79998C45.225 10.9125 43.4062 12.8 40 12.8C36.5938 12.8 34.775 10.9125 33.55 8.79998C32.8937 7.66873 32.5312 6.61248 32.3 5.79998C33.6437 5.36873 36.1188 4.79998 40 4.79998ZM29.95 8.39998C30.2188 9.06873 30.3813 9.67498 30.8 10.4C31.7812 12.0937 33.325 13.9125 35.5 15L31.25 19.25L28.95 9.94998L29.95 8.39998ZM50.05 8.39998L51.05 9.94998L48.75 19.25L44.5 15C46.675 13.9125 48.2188 12.0937 49.2 10.4C49.6188 9.67498 49.7812 9.06873 50.05 8.39998ZM26.05 11.65L28.85 22.8C28.9875 23.3687 29.4188 23.8187 29.9813 23.975C30.5375 24.125 31.1438 23.9687 31.55 23.55L39.2 15.9C39.4688 15.9187 39.7188 16 40 16C40.2812 16 40.5312 15.9187 40.8 15.9L48.45 23.55C48.8563 23.9687 49.4625 24.125 50.0187 23.975C50.5812 23.8187 51.0125 23.3687 51.15 22.8L53.95 11.65L58.9 13.2C58.6875 14.2125 58.1938 16.4187 57.85 20.65C57.475 25.2812 57.525 30.9437 58.95 35.9C58.9625 35.95 58.9813 36 59 36.05C59.0063 36.0625 58.9938 36.0875 59 36.1C59.025 36.2562 59.075 36.4062 59.15 36.55C59.175 36.6312 59.175 36.7187 59.2 36.8L59.1 44.9L59.2 75.2H20.8V37C23.0938 32.6625 23.0125 26.6687 22.5 21.5C22.0438 16.9375 21.4 14.2812 21.15 13.2L26.05 11.65ZM18.2 14.45C18.5625 16.125 19.025 18.5375 19.35 21.8C19.7875 26.2062 19.6812 31.2875 18.5 34.55C18.2875 34.7062 18.1125 34.9125 18 35.15C18 35.15 16.35 37.7187 14.7 40.5C13.875 41.8937 13.0375 43.3312 12.4 44.6C12.0813 45.2375 11.8062 45.8125 11.6 46.35C11.3938 46.8875 11.2 47.3062 11.2 48V68.8H3.2V47.1C3.2 46.7875 3.46875 45.3187 4 43.55C4.53125 41.7812 5.28125 39.5875 6.1 37.3C7.74375 32.725 9.68125 27.7375 10.9 24.45C12.3 20.6812 14.1938 18.0375 15.9 16.3C16.7125 15.475 17.5375 14.8937 18.2 14.45ZM61.85 14.45C62.5063 14.8875 63.3 15.4875 64.1 16.3C65.8063 18.0375 67.7 20.6812 69.1 24.45C70.3187 27.7375 72.2562 32.725 73.9 37.3C74.7188 39.5875 75.4688 41.7812 76 43.55C76.5312 45.3187 76.8 46.7875 76.8 47.1V68.8H68.8V48C68.8 47.3062 68.6062 46.8875 68.4 46.35C68.1937 45.8125 67.9188 45.2375 67.6 44.6C66.9625 43.3312 66.125 41.8937 65.3 40.5C63.65 37.7187 62 35.15 62 35.15C61.9562 35.0625 61.9062 34.9812 61.85 34.9C60.6688 30.6187 60.6938 25.2875 61.05 20.9C61.2812 18.0812 61.5812 15.975 61.85 14.45Z"
      fill="url(#paint0_linear_51_1128)" />
    <defs>
      <linearGradient id="paint0_linear_51_1128" x1="40" y1="1.59998" x2="40" y2="78.4" gradientUnits="userSpaceOnUse">
        <stop stop-color="#FFC619" />
        <stop offset="0.489583" stop-color="#F69020" />
        <stop offset="1" stop-color="#EA422A" />
      </linearGradient>
    </defs>
  </symbol>

  <symbol id="icon-cd" viewBox="0 0 86 86" fill="none">
    <path
      d="M43.0001 3.45007C21.1786 3.45007 3.4502 21.1784 3.4502 43C3.4502 64.8215 21.1786 82.5499 43.0001 82.5499C64.8217 82.5499 82.55 64.8215 82.55 43C82.55 21.1784 64.8217 3.45007 43.0001 3.45007ZM43.0001 6.86992C47.4527 6.86992 51.7117 7.67865 55.6482 9.14757L47.4815 28.2019C46.0614 27.7703 44.5584 27.5301 43.0001 27.5301C34.4775 27.5301 27.5302 34.4774 27.5302 43C27.5302 44.5583 27.7704 46.0613 28.2021 47.4814L9.1477 55.648C7.67877 51.7116 6.87004 47.4526 6.87004 43C6.87004 23.0256 23.0257 6.86992 43.0001 6.86992ZM58.7791 10.5283C66.0499 14.0638 71.9363 19.9502 75.4718 27.221L56.441 35.3776C55.0598 32.9545 53.0456 30.9403 50.6225 29.5591L58.7791 10.5283ZM76.8525 30.3519C78.3215 34.2884 79.1302 38.5474 79.1302 43C79.1302 62.9744 62.9746 79.1301 43.0001 79.1301C38.5475 79.1301 34.2885 78.3213 30.3521 76.8524L38.5187 57.798C39.9388 58.2297 41.4418 58.4699 43.0001 58.4699C51.5227 58.4699 58.47 51.5226 58.47 43C58.47 41.4417 58.2298 39.9387 57.7982 38.5186L76.8525 30.3519ZM43.0001 30.9499C49.6754 30.9499 55.0502 36.3247 55.0502 43C55.0502 49.6753 49.6754 55.0501 43.0001 55.0501C36.3248 55.0501 30.95 49.6753 30.95 43C30.95 36.3247 36.3248 30.9499 43.0001 30.9499ZM43.0001 37.84C40.1501 37.84 37.8401 40.15 37.8401 43C37.8401 45.85 40.1501 48.16 43.0001 48.16C45.8502 48.16 48.1601 45.85 48.1601 43C48.1601 40.15 45.8502 37.84 43.0001 37.84ZM29.5593 50.6224C30.9404 53.0455 32.9546 55.0597 35.3777 56.4409L27.2211 75.4717C19.9503 71.9362 14.0639 66.0498 10.5284 58.779L29.5593 50.6224Z"
      fill="url(#paint0_linear_51_1144)" />
    <defs>
      <linearGradient id="paint0_linear_51_1144" x1="43.0001" y1="3.45007" x2="43.0001" y2="82.5499"
        gradientUnits="userSpaceOnUse">
        <stop stop-color="#FFC619" />
        <stop offset="0.5" stop-color="#F69020" />
        <stop offset="1" stop-color="#EA422A" />
      </linearGradient>
    </defs>
  </symbol>

  <symbol id="icon-people" viewBox="0 0 80 80" fill="none">
    <path
      d="M72.0999 3.89996C69.9374 3.80621 67.9124 5.24371 67.3499 7.39996L65.1499 15.95L59.1499 24.6L49.5999 26.75C47.9811 27.1187 46.4999 27.9562 45.3999 29.2L38.7999 36.55C37.9624 37.4812 37.3249 38.6375 36.9999 39.85L34.7499 48.35C34.1374 50.6312 35.4749 53.0187 37.7499 53.65C39.9999 54.275 42.3749 52.9375 43.0499 50.7L45.2999 43.25L48.8499 39.7C48.8186 40.6625 49.0561 41.3 48.8499 42.3C48.4124 44.4562 47.7499 46.25 47.7499 46.25L41.5499 58.2C41.2124 58.85 40.9499 59.5437 40.7999 60.25L38.5499 71.1C37.9311 74.0375 40.1999 76.9 43.1999 76.9H43.6999C45.9624 76.9 47.9499 75.2625 48.3999 73.05L50.4999 62.7L55.8499 53.1L60.1999 58.75L61.7499 72.65C62.0186 75.0562 64.0811 76.9 66.4999 76.9C69.3061 76.9 71.5374 74.3937 71.2499 71.6L69.7499 56.8C69.6561 55.9 69.3874 55.0187 68.9999 54.2L64.4499 44.6C64.7936 43.65 66.4999 38.5375 65.8999 32.8L73.3999 20.15C73.4624 20.0375 73.5124 19.925 73.5499 19.8L76.3999 9.84996C77.1249 7.32496 75.5999 4.68746 73.0499 4.04996C72.7436 3.97496 72.4061 3.91246 72.0999 3.89996ZM30.7999 4.39996C30.2124 4.41246 29.6124 4.53746 29.0499 4.79996C26.9436 5.77496 25.9374 8.24371 26.7999 10.4L29.5999 17.5L25.0499 25.6L17.3999 26.65L12.5999 21.15L12.8499 18.95C13.1374 22.65 16.2311 25.6 19.9999 25.6C23.9561 25.6 27.1999 22.3562 27.1999 18.4C27.1999 14.4437 23.9561 11.2 19.9999 11.2C16.8124 11.2 14.0874 13.3125 13.1499 16.2L13.5999 12.45C13.8936 9.94996 11.9624 7.68121 9.44989 7.54996H9.09989C6.78739 7.43121 4.74364 9.14371 4.49988 11.45L3.34988 22.2C3.18739 23.7125 3.63113 25.1875 4.54989 26.4L12.2999 36.65L9.49989 42.85C8.36239 45.3562 7.91239 48.1125 8.19989 50.85L10.4499 72.35C10.7124 74.85 12.8374 76.8 15.3499 76.8C18.2124 76.8 20.4874 74.3062 20.2499 71.45L18.6499 52.2L18.8499 52.05L23.8499 59.05L21.2999 71C20.6624 73.9562 22.9749 76.8 25.9999 76.8C28.1749 76.8 30.0561 75.3125 30.5999 73.2L33.9999 60.15C34.3999 58.6 34.1999 56.9687 33.4499 55.55L28.0999 45.4L30.6499 34L38.3499 21.1C39.1811 19.7062 39.3561 18.0062 38.7499 16.5L34.9499 7.14996C34.4874 5.99371 33.5811 5.12496 32.4999 4.69996C31.9624 4.48746 31.3874 4.38746 30.7999 4.39996ZM71.6499 7.09996C71.8374 7.07496 72.0499 7.09996 72.2499 7.14996C73.0811 7.35621 73.5374 8.17496 73.2999 8.99996L70.4499 18.9L62.9499 31.55C62.7499 31.8625 62.6561 32.2312 62.6999 32.6C63.4499 37.95 61.2499 44.2 61.2499 44.2C61.0936 44.6062 61.1124 45.0562 61.2999 45.45L66.0999 55.55C66.3311 56.0437 66.4936 56.6062 66.5499 57.15L68.0499 71.95C68.1499 72.9062 67.4624 73.7 66.4999 73.7C65.6811 73.7 65.0436 73.1125 64.9499 72.3L63.2999 57.9C63.2749 57.6125 63.1686 57.3375 62.9999 57.1L56.9499 49.25C56.6311 48.8062 56.1061 48.55 55.5561 48.5812C55.0124 48.6125 54.5186 48.9187 54.2499 49.4L47.5999 61.3C47.5249 61.4437 47.4749 61.5937 47.4499 61.75L45.2499 72.4C45.0999 73.1437 44.4561 73.7 43.6999 73.7H43.1999C42.1624 73.7 41.4374 72.8187 41.6499 71.8L43.9499 60.9C44.0436 60.4687 44.1999 60.0312 44.3999 59.65L50.6999 47.5C50.7374 47.4375 50.7686 47.3687 50.7999 47.3C50.7999 47.3 51.5124 45.3562 51.9999 42.95C52.4874 40.5437 52.9499 37.7312 51.7999 35.35C51.5749 34.8875 51.1436 34.5625 50.6374 34.475C50.1374 34.3875 49.6186 34.5437 49.2499 34.9L42.7999 41.2C42.6061 41.3937 42.4686 41.6375 42.3999 41.9L39.9999 49.8C39.8186 50.4062 39.2061 50.7187 38.5999 50.55C37.9874 50.3812 37.6811 49.7687 37.8499 49.15L40.0999 40.65C40.2936 39.925 40.6436 39.2625 41.1499 38.7L47.7999 31.35C47.7999 31.3312 47.7999 31.3187 47.7999 31.3C48.4561 30.5625 49.3311 30.0687 50.2999 29.85L60.4499 27.55C60.8561 27.4687 61.2124 27.2375 61.4499 26.9L67.9499 17.5C68.0686 17.3312 68.1499 17.15 68.1999 16.95L70.4499 8.19996C70.6061 7.59371 71.0811 7.18121 71.6499 7.09996ZM30.8999 7.59996C31.3749 7.58746 31.7999 7.86246 31.9999 8.34996L35.7499 17.7C35.9811 18.2812 35.9186 18.9125 35.5999 19.45L27.7499 32.6C27.6624 32.7375 27.5936 32.8875 27.5499 33.05L24.7999 45.25C24.7186 45.625 24.7686 46.0125 24.9499 46.35L30.6499 57.05C31.0249 57.7562 31.0999 58.575 30.8999 59.35L27.4999 72.4C27.3124 73.1125 26.7374 73.6 25.9999 73.6C24.9436 73.6 24.1749 72.6812 24.3999 71.65L27.1499 59.05C27.2436 58.6187 27.1499 58.1625 26.8999 57.8L20.4999 48.85C20.2499 48.5 19.8686 48.2687 19.4499 48.2062C19.0249 48.1375 18.5936 48.2437 18.2499 48.5L15.9999 50.25C15.5749 50.5875 15.3499 51.1125 15.3999 51.65L17.0999 71.7C17.1874 72.7375 16.3874 73.6 15.3499 73.6C14.4499 73.6 13.6936 72.95 13.5999 72.05L11.3999 50.5C11.1749 48.325 11.4936 46.1375 12.3999 44.15L15.5999 37.1C15.8436 36.5812 15.7811 35.9687 15.4499 35.5L7.09989 24.5C6.67489 23.9375 6.47488 23.2 6.54989 22.5L7.69989 11.8C7.76864 11.1562 8.25613 10.7187 8.89989 10.75H9.29989C10.0124 10.7875 10.4811 11.3937 10.3999 12.1L9.29989 21.45C9.24989 21.9062 9.39364 22.3625 9.69989 22.7L15.5999 29.4C15.9561 29.8187 16.5061 30.0312 17.0499 29.95L26.2999 28.65C26.7874 28.575 27.2124 28.2812 27.4499 27.85L32.7999 18.35C33.0311 17.9375 33.0686 17.4437 32.8999 17L29.7999 9.19996C29.5561 8.59371 29.8124 7.97496 30.3999 7.69996C30.5561 7.62496 30.7436 7.60621 30.8999 7.59996ZM51.9999 11.2C48.0436 11.2 44.7999 14.4437 44.7999 18.4C44.7999 22.3562 48.0436 25.6 51.9999 25.6C55.9561 25.6 59.1999 22.3562 59.1999 18.4C59.1999 14.4437 55.9561 11.2 51.9999 11.2ZM19.9999 14.4C22.2249 14.4 23.9999 16.175 23.9999 18.4C23.9999 20.625 22.2249 22.4 19.9999 22.4C17.7749 22.4 15.9999 20.625 15.9999 18.4C15.9999 16.175 17.7749 14.4 19.9999 14.4ZM51.9999 14.4C54.2249 14.4 55.9999 16.175 55.9999 18.4C55.9999 20.625 54.2249 22.4 51.9999 22.4C49.7749 22.4 47.9999 20.625 47.9999 18.4C47.9999 16.175 49.7749 14.4 51.9999 14.4Z"
      fill="url(#paint0_linear_51_1154)" />
    <defs>
      <linearGradient id="paint0_linear_51_1154" x1="39.9487" y1="3.89563" x2="39.9487" y2="76.9"
        gradientUnits="userSpaceOnUse">
        <stop stop-color="#FFC619" />
        <stop offset="0.489583" stop-color="#F69020" />
        <stop offset="1" stop-color="#EA422A" />
      </linearGradient>
    </defs>
  </symbol>

  <symbol id="cash_hand" viewBox="0 0 68 68" fill="none">
    <path
      d="M46.58 2.8475L45.815 3.995L33.745 21.3775L23.12 24.5225L23.0775 24.565H23.035C21.6909 25.0697 20.6496 25.9516 19.8475 27.0725L19.805 27.115V27.1575L10.625 41.31L10.285 40.205L1.35996 42.8825L0.0849609 43.3075L0.467461 44.5825L6.58746 65.11L6.96996 66.4275L8.28746 66.045L15.895 63.7075L17.2125 63.325L16.7875 62.05L16.0225 59.4575L26.69 57.0775C29.9678 56.3338 32.9534 54.5647 35.0625 51.85L35.5725 51.2125L40.715 54.825L41.82 55.6325L42.585 54.485L67.235 18.87L68 17.765L66.8525 16.9575L47.685 3.655L46.58 2.8475ZM47.26 6.63L64.2175 18.445L54.485 32.5125C55.7334 28.5334 53.8209 23.7681 49.7675 20.9525C49.7568 20.9472 49.7781 20.9153 49.7675 20.91C49.7568 20.8994 49.7356 20.9206 49.725 20.91C47.3609 19.2419 44.5506 18.5459 41.99 18.785C40.5237 18.9231 39.1478 19.3906 37.9525 20.145L47.26 6.63ZM52.955 14.705C52.2112 14.6997 51.494 15.0662 51.0425 15.725C50.32 16.7769 50.5856 18.19 51.6375 18.9125C52.6893 19.635 54.145 19.3694 54.8675 18.3175C55.59 17.2656 55.3243 15.8525 54.2725 15.13C53.8793 14.8591 53.4012 14.7103 52.955 14.705ZM42.33 21.4625C44.2106 21.2925 46.309 21.8078 48.1525 23.12L48.195 23.1625C52.0465 25.8134 53.194 30.3078 51.255 33.1075H51.2125C50.235 34.6163 48.604 35.4344 46.58 35.53C46.649 33.9734 46.0965 32.4222 44.88 31.28C44.8693 31.2694 44.8481 31.2906 44.8375 31.28C42.9834 29.4472 40.0934 29.1391 37.9525 30.5575C36.6562 28.2253 36.5606 25.6912 37.825 23.885C38.7918 22.4878 40.4493 21.6325 42.33 21.4625ZM31.3225 24.9475L24.82 35.19L24.0975 36.38L25.2875 37.06L29.6225 39.6525L30.43 40.1625L31.195 39.525L38.08 33.9575C38.4306 33.8459 38.7175 33.6016 38.8875 33.2775L39.2275 33.0225C40.3112 32.1194 41.9687 32.1938 42.9675 33.1925V33.235H43.01C44.1256 34.255 44.2265 35.8488 43.265 37.1025L32.9375 50.15C31.2375 52.3334 28.8043 53.8263 26.095 54.4425L15.2575 56.865L11.4325 44.03L11.8575 43.86L12.325 43.69L12.58 43.3075L22.0575 28.6875C22.594 27.9331 23.1465 27.4709 23.9275 27.1575C23.9593 27.1469 23.9806 27.1256 24.0125 27.115L31.3225 24.9475ZM34.425 25.1175C33.899 27.4816 34.4303 30.0475 35.785 32.3L30.2175 36.8475L27.88 35.445L34.425 25.1175ZM51.765 36.465L41.14 51.85L37.23 49.0875L45.39 38.8025V38.76H45.4325C45.56 38.5953 45.6662 38.4253 45.7725 38.25C47.9825 38.3138 50.1128 37.7453 51.765 36.465ZM8.45746 43.5625L13.8125 61.54L8.79746 63.07L3.44246 45.135L8.45746 43.5625Z"
      fill="url(#paint0_linear_51_983)" />
    <defs>
      <linearGradient id="paint0_linear_51_983" x1="34.0425" y1="2.8475" x2="34.0425" y2="66.4275"
        gradientUnits="userSpaceOnUse">
        <stop stop-color="#FFC619" />
        <stop offset="0.520833" stop-color="#F69020" />
        <stop offset="1" stop-color="#EA422A" />
      </linearGradient>
    </defs>
  </symbol>

  <symbol id="target-ico" viewBox="0 0 86 86" fill="none">
    <path
      d="M42.9999 3.43994C21.1869 3.43994 3.43994 21.1869 3.43994 42.9999C3.43994 64.813 21.1869 82.5599 42.9999 82.5599C64.813 82.5599 82.5599 64.813 82.5599 42.9999C82.5599 35.0931 80.2201 27.7255 76.2074 21.5369L74.6721 23.0721L73.6912 24.0531C77.1105 29.5691 79.1199 36.046 79.1199 42.9999C79.1199 62.9175 62.9175 79.1199 42.9999 79.1199C23.0823 79.1199 6.87994 62.9175 6.87994 42.9999C6.87994 23.0823 23.0823 6.87994 42.9999 6.87994C51.4509 6.87994 59.2029 9.83394 65.3599 14.7174V18.2078L61.1708 22.3969C56.3198 18.1071 49.9692 15.4799 42.9999 15.4799C27.8261 15.4799 15.4799 27.8261 15.4799 42.9999C15.4799 58.1738 27.8261 70.5199 42.9999 70.5199C58.1738 70.5199 70.5199 58.1738 70.5199 42.9999C70.5199 37.2741 68.7578 31.9518 65.753 27.5435L63.2603 30.0361C65.6649 33.784 67.0799 38.2252 67.0799 42.9999C67.0799 56.2783 56.2783 67.0799 42.9999 67.0799C29.7215 67.0799 18.9199 56.2783 18.9199 42.9999C18.9199 29.7215 29.7215 18.9199 42.9999 18.9199C49.0222 18.9199 54.5155 21.1589 58.7386 24.8291L52.638 30.9297C49.9915 28.807 46.649 27.5199 42.9999 27.5199C34.4653 27.5199 27.5199 34.4653 27.5199 42.9999C27.5199 51.5346 34.4653 58.4799 42.9999 58.4799C51.5346 58.4799 58.4799 51.5346 58.4799 42.9999C58.4799 40.6143 57.9214 38.3643 56.9548 36.345L54.3311 38.9653C54.7817 40.2278 55.0399 41.5844 55.0399 42.9999C55.0399 49.6391 49.6391 55.0399 42.9999 55.0399C36.3607 55.0399 30.9599 49.6391 30.9599 42.9999C30.9599 36.3607 36.3607 30.9599 42.9999 30.9599C45.7003 30.9599 48.186 31.8647 50.1957 33.372L43.8868 39.6809C43.5977 39.6021 43.2996 39.5615 42.9999 39.5599C42.0876 39.5599 41.2126 39.9224 40.5675 40.5675C39.9224 41.2126 39.5599 42.0876 39.5599 42.9999C39.5599 43.9123 39.9224 44.7873 40.5675 45.4324C41.2126 46.0775 42.0876 46.4399 42.9999 46.4399C43.9123 46.4399 44.7873 46.0775 45.4324 45.4324C46.0775 44.7873 46.4399 43.9123 46.4399 42.9999C46.4398 42.6993 46.4003 42.4 46.3224 42.1097L67.7921 20.6399H72.2399L80.8399 12.0399H73.9599V5.15994L67.2983 11.8216C60.5867 6.57781 52.1578 3.43994 42.9999 3.43994Z"
      fill="url(#paint0_linear_51_1174)" />
    <defs>
      <linearGradient id="paint0_linear_51_1174" x1="42.9999" y1="3.43994" x2="42.9999" y2="82.5599"
        gradientUnits="userSpaceOnUse">
        <stop stop-color="#FFC619" />
        <stop offset="0.479167" stop-color="#F69020" />
        <stop offset="1" stop-color="#EA422A" />
      </linearGradient>
    </defs>
  </symbol>

  <symbol id="confetti-ico" viewBox="0 0 68 68" fill="none">
    <path
      d="M42.8399 2.15688L41.8784 3.11844L37.5168 7.48L42.8399 12.8031L48.1631 7.48L42.8399 2.15688ZM25.8399 5.44C25.4793 5.44004 25.1334 5.58333 24.8783 5.83838C24.6233 6.09342 24.48 6.43932 24.4799 6.8V13.6C24.48 13.9607 24.6233 14.3066 24.8783 14.5616C25.1334 14.8167 25.4793 14.96 25.8399 14.96H27.1999C28.8257 14.96 29.1793 15.4489 29.5268 16.2297C29.8743 17.0105 29.9199 18.1839 29.9199 19.04C29.9199 20.1503 29.7853 21.3177 29.5959 22.44C28.4004 22.0189 27.2532 21.7675 26.1906 21.76C24.9896 21.7514 23.7954 22.0886 22.942 22.942C22.5779 23.3061 22.3339 23.741 22.1451 24.2011L22.1212 24.1931L7.17447 62.0819L46.4153 48.6466L46.4073 48.6227C46.9111 48.4326 47.3845 48.1712 47.7779 47.778C48.7952 46.7607 49.071 45.2943 48.9201 43.8281C48.825 42.9038 48.5573 41.9275 48.171 40.9142C49.2448 40.8492 50.3868 40.8 51.6799 40.8C53.6187 40.8 55.453 41.0345 56.6445 41.4481C57.2402 41.655 57.6599 41.9083 57.8637 42.1016C58.0675 42.2948 58.0788 42.3509 58.0788 42.5V43.52C58.0789 43.8807 58.2222 44.2266 58.4772 44.4816C58.7323 44.7367 59.0782 44.88 59.4388 44.88H65.2799C65.4619 44.8801 65.6421 44.8436 65.8097 44.7728C65.9774 44.7019 66.1291 44.5982 66.2559 44.4676C66.3828 44.3371 66.4821 44.1824 66.548 44.0128C66.614 43.8432 66.6453 43.6621 66.6399 43.4802C66.6399 43.4802 66.5999 41.8042 66.6001 41.7855C66.6001 41.7846 66.6001 41.7837 66.6001 41.7828C66.625 38.6954 64.6803 36.3026 62.281 34.8314C59.8818 33.3602 56.9699 32.64 54.3707 32.64C50.0692 32.64 46.8696 33.7559 44.7285 34.8606C44.0534 33.9437 43.3095 33.0198 42.4973 32.1008C42.9823 31.946 43.4746 31.8019 43.9503 31.6731C44.9084 31.4137 45.8141 31.2011 46.5188 31.0436C47.2236 30.8861 47.6126 30.8185 47.9665 30.7195C49.0644 30.4118 50.5631 30.0357 51.9057 29.1391C53.2484 28.2424 54.3999 26.6297 54.3999 24.48C54.3999 23.8915 54.1146 23.5641 53.9271 23.12H54.3999C57.3074 23.12 59.8399 20.7724 59.8399 17.68V15.81C59.8399 15.81 59.8501 15.6247 59.9781 15.4169C60.106 15.209 60.2083 14.96 61.1999 14.96H62.5599C62.9206 14.96 63.2665 14.8167 63.5216 14.5616C63.7766 14.3066 63.9199 13.9607 63.9199 13.6V8.16266C63.9199 7.80197 63.7766 7.45607 63.5216 7.20103C63.2665 6.94599 62.9206 6.80269 62.5599 6.80266H60.3553C56.7406 6.79961 54.5079 8.47285 53.3135 10.0645C52.428 11.2442 52.1552 12.702 51.9456 13.9533C51.8536 14.5021 51.872 14.5613 51.8313 14.96H51.6799C49.3377 14.96 47.5025 15.809 46.386 17.1488C45.2696 18.4885 44.8799 20.1733 44.8799 21.76V23.6061C42.6509 24.341 40.0981 25.5343 37.902 27.6117C36.6074 26.5108 35.3207 25.5271 34.0584 24.7058C35.4523 22.2479 36.7199 18.9317 36.7199 14.96C36.7199 12.6178 35.9437 10.2527 34.3187 8.44156C32.6937 6.63046 30.2037 5.44 27.099 5.44H27.0963H27.0778H25.8399ZM42.8399 6.00313L44.3168 7.48L42.8399 8.95688L41.3631 7.48L42.8399 6.00313ZM14.2799 7.59688L13.3184 8.55844L8.95682 12.92L14.2799 18.2431L19.6031 12.92L14.2799 7.59688ZM27.1999 8.17859C29.5719 8.20573 31.1924 9.02991 32.2946 10.2584C33.4152 11.5073 33.9999 13.2222 33.9999 14.96C33.9999 17.7916 33.1754 20.1017 32.2149 22.092C32.3676 21.0497 32.6399 20.1279 32.6399 19.04C32.6399 18.1839 32.6856 16.6358 32.0131 15.1247C31.3406 13.6136 29.6541 12.24 27.1999 12.24V8.17859ZM60.3526 9.52266C60.3535 9.52266 60.3544 9.52266 60.3553 9.52266H61.1999V12.24C59.4716 12.24 58.2139 13.096 57.6618 13.9931C57.1097 14.8903 57.1199 15.81 57.1199 15.81V17.68C57.1199 19.3476 55.9125 20.4 54.3999 20.4H51.6799C51.4322 20.4 51.1891 20.4677 50.977 20.5958C50.7649 20.7239 50.5918 20.9075 50.4764 21.1268C50.361 21.3461 50.3077 21.5927 50.3223 21.84C50.3368 22.0874 50.4187 22.3261 50.559 22.5303C50.5595 22.531 50.6651 22.6647 50.6732 22.6737C50.6814 22.6829 50.6867 22.6893 50.6918 22.695C50.7021 22.7063 50.714 22.7181 50.729 22.7348C50.759 22.7684 50.8019 22.8184 50.8538 22.8809C50.9577 23.0059 51.0955 23.1833 51.2284 23.3856C51.4942 23.7902 51.6799 24.2977 51.6799 24.48C51.6799 25.782 51.2185 26.3256 50.3943 26.8759C49.5702 27.4263 48.3482 27.788 47.2334 28.1005C47.2785 28.0878 46.6509 28.2275 45.9238 28.39C45.1968 28.5525 44.2557 28.774 43.241 29.0488C41.683 29.4706 40.1323 30.1476 38.6935 30.8683C40.9711 28.0344 44.0983 26.4931 46.6065 25.7895C46.8923 25.7095 47.1441 25.5382 47.3234 25.3018C47.5028 25.0654 47.5999 24.7768 47.5999 24.48V21.76C47.5999 20.6267 47.8903 19.5915 48.4738 18.8913C49.0574 18.191 49.9422 17.68 51.6799 17.68H53.0399C53.3881 17.6798 53.7229 17.5461 53.9754 17.3064C54.2279 17.0667 54.3789 16.7394 54.3973 16.3917C54.3973 16.3917 54.4467 15.4864 54.6284 14.4022C54.8101 13.318 55.2173 12.054 55.4863 11.6955C55.4872 11.6955 55.4881 11.6955 55.489 11.6955C56.3349 10.5676 57.5002 9.52026 60.3526 9.52266ZM14.2799 11.4431L15.7568 12.92L14.2799 14.3969L12.8031 12.92L14.2799 11.4431ZM61.8799 23.12L58.4799 26.52L61.8799 29.92L65.2773 26.52L61.8799 23.12ZM8.83994 24.48L5.43994 27.88L8.83994 31.28L12.2373 27.88L8.83994 24.48ZM26.1693 24.48C26.8822 24.485 27.8671 24.7455 28.9982 25.2025C28.6093 26.6874 28.2346 27.7822 28.119 28.1323C28.0257 28.4152 28.0279 28.7208 28.1251 29.0023C28.2223 29.2838 28.4093 29.5256 28.6572 29.6906C28.9052 29.8556 29.2004 29.9346 29.4976 29.9156C29.7948 29.8966 30.0776 29.7806 30.3024 29.5853C30.4932 29.4192 30.8272 29.1077 31.434 28.4166C31.7582 28.0473 32.1362 27.5801 32.5337 27.0459C33.6917 27.7727 34.9003 28.6537 36.109 29.6623C35.933 29.9028 35.7492 30.1295 35.5831 30.3875L32.8578 34.6242C32.6889 34.8885 32.6167 35.2031 32.6532 35.5146C32.6897 35.8261 32.8327 36.1154 33.058 36.3335C33.2833 36.5517 33.5771 36.6852 33.8897 36.7116C34.2022 36.738 34.5142 36.6556 34.7729 36.4783L38.8635 33.6547C39.1035 33.489 39.4175 33.3176 39.772 33.1473C40.7475 34.198 41.636 35.2571 42.4123 36.2977C41.9775 36.6319 41.6377 36.9272 41.5729 36.9909C41.572 36.9918 41.5711 36.9927 41.5703 36.9936L38.4837 40.043C38.2615 40.2626 38.1217 40.552 38.0878 40.8626C38.0539 41.1732 38.1279 41.486 38.2974 41.7484C38.467 42.0108 38.7217 42.2068 39.0188 42.3036C39.3158 42.4003 39.6371 42.3918 39.9287 42.2795C39.9287 42.2795 41.7139 41.6018 45.3342 41.1639C45.8331 42.3027 46.1353 43.3227 46.216 44.107C46.3164 45.0824 46.1227 45.5869 45.8548 45.8548C45.7501 45.9595 45.6 46.0469 45.4112 46.1152L45.2731 46.163C45.0317 46.226 44.7267 46.2561 44.3221 46.232C43.4733 46.1814 42.3053 45.8629 40.9832 45.2625C38.3391 44.0617 35.0868 41.7653 32.021 38.6989C28.9552 35.6324 26.6584 32.381 25.4574 29.7367C24.857 28.4146 24.5386 27.2438 24.4879 26.3952C24.4627 25.9734 24.4961 25.6546 24.5649 25.4097C24.573 25.3812 24.5852 25.3619 24.5942 25.3353C24.6633 25.1311 24.755 24.9753 24.8651 24.8652C25.0888 24.6415 25.4554 24.4749 26.1693 24.48ZM22.6896 30.1644C22.7841 30.3964 22.8718 30.6266 22.9792 30.863C24.3683 33.9216 26.8371 37.3605 30.0979 40.622C33.3589 43.8837 36.7983 46.3518 39.857 47.7408C39.9802 47.7967 40.0989 47.8397 40.2209 47.8922L11.8654 57.6008L22.6896 30.1644ZM54.3707 35.36C56.4418 35.36 58.982 35.9988 60.8599 37.1503C62.7379 38.3018 63.896 39.7953 63.8801 41.7589C63.879 41.8636 63.8851 41.9941 63.8881 42.16H60.6474C60.5422 41.3861 60.262 40.6266 59.7363 40.128C59.1228 39.546 58.3683 39.1691 57.5343 38.8795C55.8663 38.3004 53.8212 38.08 51.6799 38.08C48.1798 38.08 45.7852 38.4386 43.7085 38.7786C44.0205 38.4807 47.3746 35.36 54.3707 35.36ZM52.3599 51.1169L51.3984 52.0784L47.0368 56.44L52.3599 61.7631L57.6831 56.44L52.3599 51.1169ZM52.3599 54.9631L53.8368 56.44L52.3599 57.9169L50.8831 56.44L52.3599 54.9631Z"
      fill="url(#paint0_linear_51_989)" />
    <defs>
      <linearGradient id="paint0_linear_51_989" x1="36.0402" y1="2.15688" x2="36.0402" y2="62.0819"
        gradientUnits="userSpaceOnUse">
        <stop stop-color="#FFC619" />
        <stop offset="0.520833" stop-color="#F69020" />
        <stop offset="1" stop-color="#EA422A" />
      </linearGradient>
    </defs>
  </symbol>

  <symbol id="bottle-champagne-icon" viewBox="0 0 67 67" fill="none">
    <path
      d="M56.908 2.69047C55.2749 2.69047 53.6418 3.30813 52.4065 4.54344L49.9725 6.97742C49.5014 7.44852 49.449 8.19703 49.8521 8.73094L47.0046 11.5784C41.1997 17.3834 36.3579 19.1421 31.4951 20.7648C26.6376 22.3874 21.6754 23.8687 16.5772 28.9723L4.28161 41.2626C2.15645 43.3877 2.15645 46.8738 4.28161 49.0042L11.1386 55.8612L17.9957 62.713C20.1261 64.8434 23.6122 64.8434 25.7373 62.713L38.0276 50.4227C43.1311 45.3245 44.6125 40.3623 46.2299 35.5048C47.8526 30.642 49.6113 25.8002 55.4215 19.9953L58.269 17.1478C58.8029 17.5509 59.5514 17.4985 60.0225 17.0274L62.4565 14.5934C64.9323 12.1176 64.9323 8.06617 62.4565 5.59031L61.4096 4.54344C60.169 3.30813 58.5411 2.68523 56.908 2.69047ZM56.908 5.34953C57.8502 5.35477 58.7924 5.71594 59.52 6.43828L60.5616 7.48516C62.0115 8.93508 62.0115 11.2487 60.5616 12.6986L59.0855 14.1747L55.9554 11.0445C55.9187 11.0079 55.8768 10.9713 55.835 10.9398L52.82 7.92484L54.2961 6.43828C55.0236 5.71594 55.9658 5.34953 56.908 5.34953ZM33.4999 5.36C32.7618 5.36 32.1599 5.96195 32.1599 6.7C32.1599 7.43805 32.7618 8.04 33.4999 8.04C34.2379 8.04 34.8399 7.43805 34.8399 6.7C34.8399 5.96195 34.2379 5.36 33.4999 5.36ZM41.5399 9.38C40.8018 9.38 40.1999 9.98195 40.1999 10.72C40.1999 11.458 40.8018 12.06 41.5399 12.06C42.2779 12.06 42.8799 11.458 42.8799 10.72C42.8799 9.98195 42.2779 9.38 41.5399 9.38ZM51.7365 10.6363L56.3636 15.2634L53.5214 18.1005C51.5114 20.1157 49.9725 22.0472 48.7058 23.9263L43.0736 18.2941C44.9527 17.0274 46.8842 15.4885 48.8994 13.4785L51.7365 10.6363ZM40.739 19.7441L47.2558 26.2609C46.1095 28.2918 45.272 30.2442 44.5811 32.1181L37.3105 29.6894L34.8818 22.4188C36.7557 21.7279 38.7081 20.8904 40.739 19.7441ZM32.3536 23.3034L34.9812 31.1759C35.1121 31.5737 35.4261 31.8878 35.824 32.0187L43.6965 34.6463C43.6912 34.6463 43.6912 34.6516 43.6912 34.6516C42.0529 39.5719 40.8176 43.8484 36.138 48.5331L23.8477 60.8234C22.7433 61.9227 20.995 61.9227 19.8905 60.8234L6.17646 47.1094C5.07724 46.0049 5.07724 44.2566 6.17646 43.1522L18.4668 30.8619C23.1515 26.1823 27.428 24.947 32.3483 23.3087C32.3483 23.3087 32.3536 23.3087 32.3536 23.3034ZM58.9599 24.12C58.2218 24.12 57.6199 24.722 57.6199 25.46C57.6199 26.198 58.2218 26.8 58.9599 26.8C59.6979 26.8 60.2999 26.198 60.2999 25.46C60.2999 24.722 59.6979 24.12 58.9599 24.12ZM62.9799 29.48C62.2418 29.48 61.6399 30.082 61.6399 30.82C61.6399 31.558 62.2418 32.16 62.9799 32.16C63.7179 32.16 64.3199 31.558 64.3199 30.82C64.3199 30.082 63.7179 29.48 62.9799 29.48ZM56.2799 32.16C55.5418 32.16 54.9399 32.762 54.9399 33.5C54.9399 34.238 55.5418 34.84 56.2799 34.84C57.0179 34.84 57.6199 34.238 57.6199 33.5C57.6199 32.762 57.0179 32.16 56.2799 32.16ZM30.8199 33.5C29.3386 33.5 28.1399 34.6987 28.1399 36.18C28.1399 37.6613 29.3386 38.86 30.8199 38.86C32.3012 38.86 33.4999 37.6613 33.4999 36.18C33.4999 34.6987 32.3012 33.5 30.8199 33.5ZM20.5082 34.259C20.1575 34.2642 19.8277 34.4055 19.5765 34.6516L11.1386 43.0946C10.6152 43.618 10.6152 44.4712 11.1386 44.9947L22.0052 55.8612C22.5286 56.3794 23.3818 56.3794 23.9053 55.8612L32.3431 47.4182C32.8665 46.8948 32.8665 46.0468 32.3431 45.5234L21.4765 34.6516C21.22 34.4003 20.8693 34.259 20.5082 34.259ZM20.5239 37.4991L29.5008 46.4708L22.9526 53.0137L13.9809 44.0473L20.5239 37.4991Z"
      fill="url(#paint0_linear_51_977)" />
    <defs>
      <linearGradient id="paint0_linear_51_977" x1="33.5038" y1="2.69044" x2="33.5038" y2="64.3108"
        gradientUnits="userSpaceOnUse">
        <stop stop-color="#FFC619" />
        <stop offset="0.520833" stop-color="#F69020" />
        <stop offset="1" stop-color="#EA422A" />
      </linearGradient>
    </defs>
  </symbol>

  <symbol id="icon_micro" viewBox="0 0 70 70" fill="none">
    <path
      d="M47.5999 1.3125C39.178 1.3125 32.2765 8.11016 32.1124 16.4937C31.303 17.768 20.5679 34.6883 12.1187 43.1375L12.1624 43.1812C12.0476 43.2687 11.6374 43.5094 11.3749 44.1875C11.0741 44.9641 11.3147 46.2711 12.1624 47.1187L14.1312 49.0875L11.7687 51.45C9.35147 53.8672 8.27412 56.607 8.35615 59.1937C8.43818 61.7805 9.59756 64.1539 11.3749 65.8438C14.9241 69.2234 21.1257 70.0055 25.7249 65.4062L44.9312 46.2C48.6663 42.4648 52.7515 43.2359 55.2562 45.675C56.5085 46.8945 57.3179 48.5461 57.3562 50.3125C57.3944 52.0789 56.7218 54.0094 54.7749 55.9562L45.8937 64.8375C45.314 65.4172 45.314 66.3578 45.8937 66.9375C46.4733 67.5172 47.414 67.5172 47.9937 66.9375L56.8312 58.0562C59.2483 55.6391 60.3421 52.8664 60.2874 50.2687C60.2327 47.6711 59.0733 45.2867 57.3124 43.575C55.5515 41.8633 53.1179 40.8078 50.5312 40.775C47.9444 40.7422 45.2319 41.743 42.8749 44.1L23.6687 63.3062C20.0812 66.8937 15.9687 66.1172 13.4312 63.7C12.1624 62.4914 11.3421 60.8453 11.2874 59.1063C11.2327 57.3672 11.878 55.4531 13.8249 53.5062L13.9562 53.4188L16.1874 51.1875L17.2374 52.1937C18.0741 53.0305 19.228 53.3477 20.0374 53.1125C20.7429 52.9102 20.989 52.4453 21.0874 52.325L21.1749 52.4125C29.4108 44.1711 46.6265 33.1078 47.9062 32.2875C56.2952 32.1234 63.0874 25.2273 63.0874 16.8C63.0874 8.27422 56.1202 1.3125 47.5999 1.3125ZM47.5999 4.2875C54.5288 4.2875 60.1124 9.86562 60.1124 16.8C60.1124 19.5727 59.221 22.1266 57.7062 24.1938L40.2062 6.69375C42.2733 5.17891 44.8272 4.2875 47.5999 4.2875ZM38.0624 8.70625L55.7374 26.3375C53.5554 28.2023 50.7116 29.3125 47.5999 29.3125C40.6655 29.3125 35.0874 23.7398 35.0874 16.8C35.0874 13.6992 36.2085 10.8883 38.0624 8.70625ZM32.6812 20.8687C34.1304 26.157 38.3194 30.3461 43.6187 31.7625C37.9147 35.525 26.0312 43.6023 19.2937 50.3125C19.2718 50.2852 19.2772 50.2961 19.2062 50.225L14.1312 45.1063C20.978 38.243 28.9679 26.5508 32.6812 20.8687ZM32.4624 30.1437C32.0413 30.1437 31.5983 30.3078 31.2812 30.625L27.5187 34.4312C26.8788 35.0711 26.8788 36.1102 27.5187 36.75L27.6499 36.8812C28.2843 37.5211 29.3288 37.5211 29.9687 36.8812L33.7749 33.075C34.4147 32.4406 34.4093 31.3961 33.7749 30.7563L33.5999 30.625C33.2827 30.3078 32.8835 30.1437 32.4624 30.1437Z"
      fill="url(#paint0_linear_51_971)" />
    <defs>
      <linearGradient id="paint0_linear_51_971" x1="35.7196" y1="1.3125" x2="35.7196" y2="68.6185"
        gradientUnits="userSpaceOnUse">
        <stop stop-color="#FFC619" />
        <stop offset="0.520833" stop-color="#F69020" />
        <stop offset="1" stop-color="#EA422A" />
      </linearGradient>
    </defs>
  </symbol>

  <symbol id="arrow-up" viewBox="0 0 19 12" fill="none">
    <path d="M17.397 10.4314L8.17419 1.4314M1.39697 10.4314L10.6198 1.4314" stroke-width="4"/>
  </symbol>



</svg>